# xmcd
#
# Track frame offsets:
#	150
#	13187
#	28422
#	42161
#	60263
#	74099
#	87445
#	102840
#	115687
#	129876
#	144759
#
# Disc length: 2176 seconds
#
# Revision: 0
# Processed by: cddbd v1.5.2PL0 Copyright (c) Steve Scherf et al.
# Submitted via: dBpowerAMP V4.0
#
DISCID=8f087e0b
DTITLE=Kids in the Way - A Love Hate Masquerade
DYEAR=2007
DGENRE=Christian Rock
TTITLE0=Your Demon
TTITLE1=Better Times
TTITLE2=The Innocence
TTITLE3=Letting Go
TTITLE4=My Little Nightmare
TTITLE5=Far From Over
TTITLE6=Sugar
TTITLE7=We Kill At Twilight
TTITLE8=Winter Passing
TTITLE9=Fiction
TTITLE10=Farewell
EXTD=
EXTT0=
EXTT1=
EXTT2=
EXTT3=
EXTT4=
EXTT5=
EXTT6=
EXTT7=
EXTT8=
EXTT9=
EXTT10=
PLAYORDER=
